<svg width="100" height="100" viewBox="0 0 95 95" fill="none" xmlns="http://www.w3.org/2000/svg">
<path d="M47.5 95C73.7335 95 95 73.7335 95 47.5C95 21.2665 73.7335 0 47.5 0C21.2665 0 0 21.2665 0 47.5C0 73.7335 21.2665 95 47.5 95Z" fill="#FFD93B"/>
<path d="M95 47.5C95 73.7437 73.7289 95 47.5 95C32.5672 95 19.2375 88.1125 10.5242 77.3211C18.6734 83.9117 29.0492 87.8453 40.3453 87.8453C66.5742 87.8453 87.8453 66.5891 87.8453 40.3453C87.8453 29.0492 83.9117 18.6734 77.3211 10.5242C88.0977 19.2375 95 32.5672 95 47.5Z" fill="#F4C534"/>
<path d="M45.2645 38.0624C45.2645 47.6069 37.5191 55.382 27.9983 55.382C18.4537 55.382 10.6786 47.6099 10.6786 38.0624C10.6786 28.5445 18.4508 20.7694 27.9983 20.7694C37.5191 20.7723 45.2645 28.5445 45.2645 38.0624Z" fill="white"/>
<path d="M84.3184 38.0624C84.3184 47.6069 76.5462 55.382 67.0255 55.382C57.4809 55.382 49.7325 47.6099 49.7325 38.0624C49.7325 28.5445 57.4809 20.7694 67.0255 20.7694C76.5462 20.7723 84.3184 28.5445 84.3184 38.0624Z" fill="white"/>
<path d="M30.2308 44.0533C34.9987 44.0533 38.8639 40.1881 38.8639 35.4202C38.8639 30.6522 34.9987 26.787 30.2308 26.787C25.4628 26.787 21.5977 30.6522 21.5977 35.4202C21.5977 40.1881 25.4628 44.0533 30.2308 44.0533Z" fill="#3E4347"/>
<path d="M34.4714 31.1813C33.5346 30.2446 32.2959 29.9645 31.7046 30.5558C31.1134 31.147 31.3934 32.3858 32.3302 33.3225C33.267 34.2593 34.5057 34.5394 35.097 33.9481C35.6882 33.3568 35.4081 32.1181 34.4714 31.1813Z" fill="white"/>
<path d="M66.31 50.157C71.0779 50.157 74.9431 46.2918 74.9431 41.5239C74.9431 36.756 71.0779 32.8908 66.31 32.8908C61.5421 32.8908 57.6769 36.756 57.6769 41.5239C57.6769 46.2918 61.5421 50.157 66.31 50.157Z" fill="#3E4347"/>
<path d="M70.5484 37.2806C69.6117 36.3438 68.373 36.0638 67.7817 36.655C67.1904 37.2463 67.4705 38.485 68.4072 39.4218C69.344 40.3585 70.5827 40.6386 71.174 40.0474C71.7653 39.4561 71.4852 38.2174 70.5484 37.2806Z" fill="white"/>
<path d="M70.4959 68.9225C69.9022 71.9803 59.3631 83.4397 49.2397 76.1959C46.5678 74.2959 43.5397 72.8116 40.2741 72.6928C31.5756 72.3959 24.2131 77.7991 24.51 76.285C25.1037 73.1084 36.3553 57.9381 47.1319 66.7256C48.7944 68.0616 50.8131 68.9522 52.8912 69.4866C62.6258 71.8913 70.8195 67.26 70.4959 68.9225Z" fill="#3E4347"/>
</svg>
