<svg width="100" height="100" viewBox="0 0 51 77" fill="none" xmlns="http://www.w3.org/2000/svg">
<path d="M38.8 6.77C38.92 5.69 39.73 4.76 41.23 3.97999C42.79 3.13999 44.29 2.72 45.73 2.72C47.65 2.72 48.52 3.38 48.34 4.7C47.32 15.44 46 26.99 44.38 39.35L46.18 39.62C47.5 39.8 48.16 40.49 48.16 41.69C48.16 42.23 47.98 42.83 47.62 43.49C46.9 44.63 45.52 45.38 43.48 45.74C42.4 53.84 41.23 62.06 39.97 70.4C39.79 71.54 38.92 72.53 37.36 73.37C35.86 74.15 34.36 74.54 32.86 74.54C31.96 74.54 31.27 74.36 30.79 74C30.31 73.64 30.13 73.1 30.25 72.38C31.27 65.48 32.56 56.42 34.12 45.2C31.24 45.02 26.92 44.81 21.16 44.57C16.12 44.39 11.08 44.12 6.04 43.76C5.08 43.7 4.3 43.46 3.7 43.04C3.16 42.62 2.89 42.08 2.89 41.42C2.89 40.64 3.34 39.8 4.24 38.9C6.94 36.5 12.31 31.49 20.35 23.87C27.25 17.15 33.4 11.45 38.8 6.77ZM15.49 37.55C17.29 37.67 19.87 37.79 23.23 37.91C28.33 38.15 32.26 38.36 35.02 38.54C35.74 32.96 36.67 25.52 37.81 16.22L29.44 24.23C24.4 29.15 19.75 33.59 15.49 37.55Z" fill="black"/>
<path d="M38.8 6.77L40.1099 8.28137L40.7013 7.76877L40.7878 6.99086L38.8 6.77ZM41.23 3.97999L42.1527 5.75443L42.1655 5.74777L42.1782 5.74094L41.23 3.97999ZM48.34 4.7L46.3583 4.42977L46.3528 4.47024L46.349 4.5109L48.34 4.7ZM44.38 39.35L42.397 39.0901L42.1418 41.0366L44.0833 41.3279L44.38 39.35ZM46.18 39.62L45.8833 41.5979L45.8965 41.5999L45.9098 41.6017L46.18 39.62ZM47.62 43.49L49.311 44.558L49.3451 44.5039L49.3758 44.4477L47.62 43.49ZM43.48 45.74L43.1324 43.7704L41.691 44.0248L41.4975 45.4757L43.48 45.74ZM39.97 70.4L41.9456 70.7119L41.9476 70.6988L39.97 70.4ZM37.36 73.37L38.2827 75.1444L38.2955 75.1378L38.3082 75.1309L37.36 73.37ZM30.79 74L31.99 72.4L31.99 72.4L30.79 74ZM30.25 72.38L32.2228 72.7088L32.2258 72.6907L32.2285 72.6725L30.25 72.38ZM34.12 45.2L36.1009 45.4754L36.3981 43.3385L34.2448 43.2039L34.12 45.2ZM21.16 44.57L21.2433 42.5717L21.2314 42.5713L21.16 44.57ZM6.04 43.76L6.18249 41.7651L6.17363 41.7644L6.16476 41.7639L6.04 43.76ZM3.7 43.04L2.47212 44.6187L2.51185 44.6496L2.55308 44.6785L3.7 43.04ZM4.24 38.9L2.91127 37.4052L2.86735 37.4442L2.82579 37.4858L4.24 38.9ZM20.35 23.87L21.7258 25.3216L21.7357 25.3123L21.7454 25.3028L20.35 23.87ZM15.49 37.55L14.1283 36.0851L10.7371 39.2376L15.357 39.5456L15.49 37.55ZM23.23 37.91L23.324 35.9122L23.3127 35.9117L23.3014 35.9113L23.23 37.91ZM35.02 38.54L34.8898 40.5358L36.7633 40.6579L37.0036 38.7959L35.02 38.54ZM37.81 16.22L39.7951 16.4633L40.4772 10.8993L36.4272 14.7751L37.81 16.22ZM29.44 24.23L28.0572 22.7851L28.05 22.7919L28.0429 22.7988L29.44 24.23ZM40.7878 6.99086C40.7998 6.88285 40.9018 6.40488 42.1527 5.75443L40.3073 2.20556C38.5582 3.11511 37.0402 4.49715 36.8122 6.54913L40.7878 6.99086ZM42.1782 5.74094C43.5131 5.02216 44.6889 4.72 45.73 4.72V0.719995C43.8911 0.719995 42.0669 1.25783 40.2818 2.21905L42.1782 5.74094ZM45.73 4.72C46.1037 4.72 46.3558 4.75292 46.5127 4.79003C46.6711 4.82749 46.6762 4.85578 46.6137 4.80838C46.5313 4.74583 46.4384 4.63229 46.3895 4.4919C46.3477 4.37198 46.372 4.32993 46.3583 4.42977L50.3217 4.97022C50.4839 3.78062 50.1764 2.49035 49.0313 1.62161C48.0704 0.892699 46.8319 0.719995 45.73 0.719995V4.72ZM46.349 4.5109C45.3315 15.224 44.0143 26.7501 42.397 39.0901L46.363 39.6099C47.9857 27.2299 49.3085 15.656 50.331 4.88909L46.349 4.5109ZM44.0833 41.3279L45.8833 41.5979L46.4767 37.6421L44.6767 37.3721L44.0833 41.3279ZM45.9098 41.6017C46.0964 41.6271 46.1985 41.6627 46.2417 41.6817C46.28 41.6985 46.2593 41.6963 46.2197 41.6549C46.1776 41.6109 46.1552 41.5653 46.1481 41.545C46.1435 41.5319 46.16 41.5712 46.16 41.69H50.16C50.16 40.7134 49.8817 39.6966 49.1103 38.8901C48.3645 38.1104 47.3841 37.7657 46.4502 37.6383L45.9098 41.6017ZM46.16 41.69C46.16 41.7898 46.1235 42.0569 45.8642 42.5323L49.3758 44.4477C49.8365 43.6031 50.16 42.6702 50.16 41.69H46.16ZM45.929 42.422C45.6396 42.8803 44.9132 43.4562 43.1324 43.7704L43.8276 47.7096C46.1268 47.3038 48.1605 46.3797 49.311 44.558L45.929 42.422ZM41.4975 45.4757C40.4191 53.5638 39.2508 61.7723 37.9924 70.1012L41.9476 70.6988C43.2092 62.3477 44.3809 54.1162 45.4625 46.0043L41.4975 45.4757ZM37.9945 70.0881C37.9551 70.3375 37.7233 70.9029 36.4118 71.6091L38.3082 75.1309C40.1167 74.1571 41.6249 72.7425 41.9455 70.7119L37.9945 70.0881ZM36.4373 71.5956C35.1856 72.2464 33.9999 72.54 32.86 72.54V76.54C34.7201 76.54 36.5344 76.0536 38.2827 75.1444L36.4373 71.5956ZM32.86 72.54C32.1871 72.54 31.9892 72.3994 31.99 72.4L29.59 75.6C30.5508 76.3206 31.7329 76.54 32.86 76.54V72.54ZM31.99 72.4C32.0156 72.4192 32.0568 72.4559 32.0991 72.5135C32.1419 72.5719 32.173 72.6345 32.1924 72.6925C32.2306 72.8071 32.2017 72.8354 32.2228 72.7088L28.2772 72.0512C28.0663 73.3166 28.3716 74.6862 29.59 75.6L31.99 72.4ZM32.2285 72.6725C33.2497 65.7644 34.5406 56.6981 36.1009 45.4754L32.1391 44.9246C30.5794 56.1419 29.2903 65.1956 28.2715 72.0875L32.2285 72.6725ZM34.2448 43.2039C31.3433 43.0225 27.0064 42.8119 21.2433 42.5717L21.0767 46.5683C26.8336 46.8081 31.1367 47.0174 33.9952 47.1961L34.2448 43.2039ZM21.2314 42.5713C16.2152 42.3921 11.1989 42.1234 6.18249 41.7651L5.89751 45.7549C10.9611 46.1166 16.0248 46.3879 21.0886 46.5687L21.2314 42.5713ZM6.16476 41.7639C5.45952 41.7198 5.06504 41.5542 4.84692 41.4015L2.55308 44.6785C3.53496 45.3658 4.70048 45.6802 5.91525 45.7561L6.16476 41.7639ZM4.92788 41.4613C4.89323 41.4343 4.87799 41.4172 4.87421 41.4128C4.87095 41.4089 4.87526 41.4134 4.88135 41.4256C4.88754 41.4379 4.89075 41.4486 4.89184 41.4535C4.89278 41.4576 4.89 41.448 4.89 41.42H0.89C0.89 42.723 1.46568 43.8359 2.47212 44.6187L4.92788 41.4613ZM4.89 41.42C4.89 41.4194 4.88984 41.4007 4.90141 41.359C4.91338 41.3159 4.93849 41.2464 4.99046 41.1494C5.09777 40.9491 5.29946 40.669 5.65421 40.3142L2.82579 37.4858C1.77684 38.5347 0.89 39.8582 0.89 41.42H4.89ZM5.56873 40.3948C8.29671 37.9699 13.69 32.9376 21.7258 25.3216L18.9742 22.4184C10.93 30.0424 5.58329 35.0301 2.91127 37.4052L5.56873 40.3948ZM21.7454 25.3028C28.6265 18.6012 34.7472 12.929 40.1099 8.28137L37.4901 5.25862C32.0528 9.97095 25.8735 15.6988 18.9546 22.4372L21.7454 25.3028ZM15.357 39.5456C17.188 39.6676 19.7923 39.7885 23.1586 39.9087L23.3014 35.9113C19.9477 35.7915 17.392 35.6724 15.623 35.5544L15.357 39.5456ZM23.136 39.9078C28.2322 40.1476 32.148 40.3569 34.8898 40.5358L35.1502 36.5442C32.372 36.3631 28.4278 36.1524 23.324 35.9122L23.136 39.9078ZM37.0036 38.7959C37.7243 33.2099 38.6549 25.7652 39.7951 16.4633L35.8249 15.9767C34.6851 25.2748 33.7557 32.7101 33.0364 38.2841L37.0036 38.7959ZM36.4272 14.7751L28.0572 22.7851L30.8228 25.6749L39.1928 17.6649L36.4272 14.7751ZM28.0429 22.7988C23.0123 27.7097 18.3742 32.1383 14.1283 36.0851L16.8517 39.0148C21.1258 35.0417 25.7877 30.5902 30.8371 25.6611L28.0429 22.7988Z" fill="black"/>
</svg>
